<svg width="102.986206" height="33.813843" viewBox="0 0 102.986 33.8138" fill="none" xmlns="http://www.w3.org/2000/svg" xmlns:xlink="http://www.w3.org/1999/xlink">
	<desc>
			Created with Pixso.
	</desc>
	<defs/>
	<path id="Vector" d="M23.24 31.88L29.4 32.01C27.28 31.27 25.22 30.38 23.24 29.32L23.24 31.88ZM32.52 31.03L32.52 31.88L29.4 32.01C35.27 34 40.65 34.27 44.64 33.15C41.44 33.19 37.27 32.74 32.52 31.03ZM98.33 12.64C100.89 12.64 102.98 10.58 102.98 8.03C102.98 5.48 100.91 4.12 98.33 4.12C95.77 4.12 93.68 5.49 93.68 8.03C93.68 10.57 95.76 12.64 98.33 12.64ZM93.66 31.88L102.98 31.88L102.98 14.24L93.66 14.24L93.66 31.88ZM81.8 31.88L91.12 31.88L91.12 0.7L81.8 5.06L81.8 31.88ZM76.81 12.82C73.88 9.91 68.7 10.09 68.7 10.09C68.7 10.09 63.5 9.91 60.59 12.82C57.66 15.72 57.89 18.23 57.89 21.22C57.89 24.2 57.66 26.69 60.59 29.6C63.52 32.5 68.7 32.32 68.7 32.32C68.7 32.32 73.9 32.5 76.81 29.6C79.74 26.69 79.52 24.2 79.52 21.22C79.5 18.21 79.73 15.71 76.81 12.82ZM70.41 24.3C70.41 24.87 70.12 26.29 68.69 26.29C67.25 26.29 66.96 24.87 66.96 24.3L66.96 17.85C66.96 16.46 68.14 16.11 68.69 16.11C69.23 16.11 70.41 16.44 70.41 17.85L70.41 24.3ZM53.32 12.82C50.39 9.91 45.2 10.09 45.2 10.09C45.2 10.09 40.02 9.91 37.09 12.82C36.79 13.12 36.5 13.44 36.24 13.78C30.09 9.05 24.57 6.35 19.81 4.02L19.81 0.72L16.19 2.41C7.43 -1.12 1.86 -0.49 0.53 2.43C0.53 2.43 -3.48 7.66 10.47 20.11L10.47 31.88L19.79 31.88L19.79 27.31C18.75 26.64 17.7 25.92 16.67 25.14C14.29 23.35 12.26 21.69 10.49 20.13L10.49 15.18C12.6 17.53 15.4 20.19 19.08 23.21L19.81 23.78L19.81 19.03C19.81 17.93 20.08 16.12 21.55 16.12C23.01 16.12 23.25 17.22 23.25 18.52L23.25 26.29C26.15 28.24 29.26 29.82 32.54 31.02L32.54 16.03C32.54 13.04 30.38 10.06 26 10.06C23.46 10.04 21.1 11.37 19.81 13.55L19.81 4.89C26.55 8.22 33.31 12.31 35.89 14.19C34.24 16.52 34.39 18.68 34.39 21.17C34.39 24.15 34.16 26.64 37.09 29.55C40.02 32.45 45.2 32.28 45.2 32.28C45.2 32.28 50.4 32.45 53.32 29.55C56.24 26.64 56 24.15 56 21.17C56 18.21 56.24 15.71 53.32 12.82ZM10.47 5.06L10.47 15.17C2.64 6.47 4.21 3.03 4.81 2.54C6.98 0.72 10.84 1.26 15.17 2.87L10.47 5.06ZM46.93 24.3C46.93 24.87 46.64 26.29 45.2 26.29C43.77 26.29 43.48 24.87 43.48 24.3L43.48 17.85C43.48 16.46 44.66 16.11 45.2 16.11C45.75 16.11 46.93 16.44 46.93 17.85L46.93 24.3Z" fill="#737373" fill-opacity="1.000000" fill-rule="nonzero"/>
</svg>
